<svg width="12" height="17" viewBox="0 0 12 17" fill="none" xmlns="http://www.w3.org/2000/svg">
<path d="M1.5 17C1.08333 17 0.729334 16.854 0.438 16.562C0.146 16.2707 0 15.9167 0 15.5V7.5C0 7.08333 0.146 6.72933 0.438 6.438C0.729334 6.146 1.08333 6 1.5 6H2V4C2 2.88867 2.389 1.94433 3.167 1.167C3.94433 0.389 4.88867 0 6 0C7.11133 0 8.05567 0.389 8.833 1.167C9.611 1.94433 10 2.88867 10 4V6H10.5C10.9167 6 11.2707 6.146 11.562 6.438C11.854 6.72933 12 7.08333 12 7.5V15.5C12 15.9167 11.854 16.2707 11.562 16.562C11.2707 16.854 10.9167 17 10.5 17H1.5ZM1.5 15.5H10.5V7.5H1.5V15.5ZM6 13C6.41667 13 6.77067 12.854 7.062 12.562C7.354 12.2707 7.5 11.9167 7.5 11.5C7.5 11.0833 7.354 10.7293 7.062 10.438C6.77067 10.146 6.41667 10 6 10C5.58333 10 5.22933 10.146 4.938 10.438C4.646 10.7293 4.5 11.0833 4.5 11.5C4.5 11.9167 4.646 12.2707 4.938 12.562C5.22933 12.854 5.58333 13 6 13ZM3.5 6H8.5V4C8.5 3.30533 8.257 2.715 7.771 2.229C7.285 1.743 6.69467 1.5 6 1.5C5.30533 1.5 4.715 1.743 4.229 2.229C3.743 2.715 3.5 3.30533 3.5 4V6Z" fill="#444746"/>
</svg>
