<svg width="14" height="17" viewBox="0 0 14 17" fill="none" xmlns="http://www.w3.org/2000/svg">
<path d="M10 17H7C6.722 17 6.486 16.9027 6.292 16.708C6.09733 16.514 6 16.278 6 16V12C6 11.722 6.09733 11.486 6.292 11.292C6.486 11.0973 6.722 11 7 11H7.75V8H1.5C1.08333 8 0.729333 7.854 0.438 7.562C0.146 7.27067 0 6.91667 0 6.5V3.25C0 2.83333 0.146 2.47933 0.438 2.188C0.729333 1.896 1.08333 1.75 1.5 1.75H3V1C3 0.722 3.09733 0.486 3.292 0.292C3.486 0.0973334 3.722 0 4 0H13C13.278 0 13.514 0.0973334 13.708 0.292C13.9027 0.486 14 0.722 14 1V4C14 4.278 13.9027 4.514 13.708 4.708C13.514 4.90267 13.278 5 13 5H4C3.722 5 3.486 4.90267 3.292 4.708C3.09733 4.514 3 4.278 3 4V3.25H1.5V6.5H7.75C8.16667 6.5 8.52067 6.646 8.812 6.938C9.104 7.22933 9.25 7.58333 9.25 8V11H10C10.278 11 10.514 11.0973 10.708 11.292C10.9027 11.486 11 11.722 11 12V16C11 16.278 10.9027 16.514 10.708 16.708C10.514 16.9027 10.278 17 10 17ZM7.5 15.5H9.5V12.5H7.5V15.5ZM4.5 3.5H12.5V1.5H4.5V3.5Z" fill="#444746"/>
</svg>
