<svg width="16" height="14" viewBox="0 0 16 14" fill="none" xmlns="http://www.w3.org/2000/svg">
<path d="M11.5 4V1.5H4.5V4H3V0H13V4H11.5ZM1.5 5.5H14.521H3H1.5ZM12.75 7.5C12.958 7.5 13.135 7.427 13.281 7.281C13.427 7.135 13.5 6.958 13.5 6.75C13.5 6.542 13.427 6.365 13.281 6.219C13.135 6.073 12.958 6 12.75 6C12.542 6 12.365 6.073 12.219 6.219C12.073 6.365 12 6.542 12 6.75C12 6.958 12.073 7.135 12.219 7.281C12.365 7.427 12.542 7.5 12.75 7.5ZM11.5 12.5V9.5H4.5V12.5H11.5ZM13 14H3V11H0V6C0 5.44467 0.194333 4.97233 0.583 4.583C0.972333 4.19433 1.44467 4 2 4H14C14.5553 4 15.0277 4.19433 15.417 4.583C15.8057 4.97233 16 5.44467 16 6V11H13V14ZM14.521 9.5V6.292C14.521 6.06933 14.4377 5.88167 14.271 5.729C14.1043 5.57633 13.91 5.5 13.688 5.5H2.292C2.06933 5.5 1.88167 5.57633 1.729 5.729C1.57633 5.88167 1.5 6.06933 1.5 6.292V9.5H3V8H13V9.5H14.521Z" fill="#444746"/>
</svg>
