
<svg width="12" height="11" viewBox="0 0 12 11" fill="none" xmlns="http://www.w3.org/2000/svg">
<path d="M10 11V9.5H4C3.30533 9.5 2.715 9.257 2.229 8.771C1.743 8.285 1.5 7.69467 1.5 7C1.5 6.30533 1.743 5.715 2.229 5.229C2.715 4.743 3.30533 4.5 4 4.5H9.125L7.188 6.438L8.25 7.5L12 3.75L8.25 0L7.188 1.062L9.125 3H4C2.88866 3 1.94433 3.389 1.167 4.167C0.388997 4.94433 -2.86102e-06 5.88867 -2.86102e-06 7C-2.86102e-06 8.11133 0.388997 9.05567 1.167 9.833C1.94433 10.611 2.88866 11 4 11H10Z" fill="#444746"/>
</svg>
