<svg xmlns="http://www.w3.org/2000/svg" width="24" height="24" viewBox="0 0 24 24">
  <g id="Group_2728" data-name="Group 2728" transform="translate(-13175 -392)">
    <path id="Path_2182" data-name="Path 2182" d="M149.509,162.325a.545.545,0,0,0-.477.357L145.22,173.03h0a.545.545,0,1,0,1.021.383l3.812-10.348h0a.545.545,0,0,0-.545-.74Zm-6.272,1.906a.547.547,0,0,0-.238.085l-5.446,3.268a.545.545,0,0,0,0,.928L143,171.779a.545.545,0,1,0,.562-.927l-4.672-2.8,4.672-2.808a.545.545,0,0,0-.323-1.013Zm8.723,0a.545.545,0,0,0-.247,1.013l4.672,2.808-4.672,2.8a.545.545,0,1,0,.562.927l5.446-3.268a.545.545,0,0,0,0-.928l-5.446-3.268A.546.546,0,0,0,151.959,164.231Z" transform="translate(13039.706 235.794)" stroke="#000" stroke-width="0.5"/>
    <rect id="Rectangle_893" data-name="Rectangle 893" width="24" height="24" transform="translate(13175 392)" fill="none"/>
  </g>
</svg>
