<svg xmlns="http://www.w3.org/2000/svg" width="24" height="24" viewBox="0 0 24 24">
  <g id="Group_2725" data-name="Group 2725" transform="translate(-12995 -392)">
    <g id="formula-fx-icon" transform="translate(12997.934 394.856)">
      <path id="Path_1836" data-name="Path 1836" d="M3.94,4.907l-.581.657.057.248h1.5c-.306,1.768-.534,3.361-.972,5.817-.524,3.133-.825,3.9-1,4.183a.749.749,0,0,1-.688.423A2.348,2.348,0,0,1,.98,15.668a.345.345,0,0,0-.4.037,1.476,1.476,0,0,0-.58.974c-.017.463.6.865,1.191.865a3.375,3.375,0,0,0,2.09-1.091c1.1-1.044,1.925-2.476,2.613-5.571.443-1.976.651-3.261.962-5.069l1.859-.168.4-.738H7.023C7.564,1.5,7.986,1,8.506,1c.346,0,.748.266,1.211.788a.323.323,0,0,0,.5.04A1.35,1.35,0,0,0,10.828.9c.016-.4-.464-.9-1.289-.9A4.522,4.522,0,0,0,6.68,1.482,6.843,6.843,0,0,0,5.086,4.907ZM9.888,7.186c.577-.768.922-1.024,1.1-1.024s.331.181.647,1.2l.54,1.74c-1.044,1.6-1.808,2.486-2.272,2.486a.594.594,0,0,1-.42-.157.553.553,0,0,0-.346-.2,1.044,1.044,0,0,0-.865,1.039.941.941,0,0,0,.942,1.007c.927,0,1.71-.909,3.224-3.321l.443,1.492c.38,1.282.825,1.829,1.382,1.829.688,0,1.613-.587,2.623-2.173l-.423-.483c-.607.731-1.009,1.074-1.248,1.074-.266,0-.5-.405-.805-1.4l-.647-2.1a14.619,14.619,0,0,1,1.091-1.416c.394-.45.7-.641.905-.641a.568.568,0,0,1,.42.178c.124.137.2.2.346.2a1.046,1.046,0,0,0,.865-.982.865.865,0,0,0-.865-.962c-.845,0-1.591.728-3.025,2.861l-.3-.915c-.414-1.285-.688-1.946-1.265-1.946-.671,0-1.593.825-2.5,2.133l.444.483Z" transform="translate(0.002)"/>
    </g>
    <rect id="Rectangle_891" data-name="Rectangle 891" width="24" height="24" transform="translate(12995 392)" fill="none"/>
  </g>
</svg>
