<svg xmlns="http://www.w3.org/2000/svg" width="24" height="24" viewBox="0 0 24 24">
  <g id="Group_2730" data-name="Group 2730" transform="translate(-13288 -392)">
    <g id="Group_2719" data-name="Group 2719" transform="translate(13268.471 396.664)">
      <path id="Path_1917" data-name="Path 1917" d="M154.316,112h-15.65a1.467,1.467,0,0,0-1.467,1.467v12.227a.978.978,0,0,0,.978.978H154.8a.978.978,0,0,0,.978-.978V113.467A1.467,1.467,0,0,0,154.316,112Zm-15.65.978h15.65a.489.489,0,0,1,.489.489v9.412l-4.169-4.169a.978.978,0,0,0-1.384,0l-1.814,1.814-3.648-3.648a.978.978,0,0,0-1.384,0l-4.228,4.23v-7.639a.489.489,0,0,1,.489-.489Zm0,12.716h0a.489.489,0,0,1-.489-.489v-2.714l4.92-4.923,3.639,3.648a.978.978,0,0,0,1.384,0l1.814-1.814,4.871,4.861v.941a.489.489,0,0,1-.489.489Z" transform="translate(-114.961 -112)" stroke="#000" stroke-width="0.35"/>
      <path id="Path_1918" data-name="Path 1918" d="M445.429,157.209a1.631,1.631,0,1,0-1.153-.478A1.631,1.631,0,0,0,445.429,157.209Zm0-2.281h0a.653.653,0,1,1-.462.191.653.653,0,0,1,.462-.191Z" transform="translate(-408.172 -152.115)" stroke="#000" stroke-width="0.35"/>
    </g>
    <rect id="Rectangle_896" data-name="Rectangle 896" width="24" height="24" transform="translate(13288 392)" fill="none"/>
  </g>
</svg>
