<svg xmlns="http://www.w3.org/2000/svg" width="24" height="24" viewBox="0 0 24 24">
  <g id="Group_2732" data-name="Group 2732" transform="translate(-13408 -392)">
    <g id="Group_2721" data-name="Group 2721" transform="translate(13403.165 396.326)">
      <path id="Path_1977" data-name="Path 1977" d="M288.84,29.376l-.278-.277a3.716,3.716,0,0,0-5.249,0l-1.666,1.666a.767.767,0,0,0,1.085,1.085l1.666-1.665a2.18,2.18,0,0,1,3.079,0l.277.277a2.18,2.18,0,0,1,0,3.079l-2.665,2.665a2.16,2.16,0,0,1-1.187.609,2.186,2.186,0,0,1-1.891-.608l-.277-.277a2.27,2.27,0,0,1-.223-.261.768.768,0,1,0-1.241.9,3.788,3.788,0,0,0,.378.442l.278.278a3.721,3.721,0,0,0,3.224,1.038,3.686,3.686,0,0,0,2.026-1.039l2.664-2.665a3.717,3.717,0,0,0,0-5.25Z" transform="translate(-265.416 -28.013)"/>
      <path id="Path_1978" data-name="Path 1978" d="M105.189,198.176l-1.666,1.665a2.179,2.179,0,0,1-3.079,0l-.278-.278a2.176,2.176,0,0,1,0-3.078l2.665-2.665a2.162,2.162,0,0,1,1.187-.609,2.187,2.187,0,0,1,1.892.609l.277.277a2.179,2.179,0,0,1,.223.26.768.768,0,1,0,1.241-.9,3.765,3.765,0,0,0-.378-.442l-.278-.277a3.711,3.711,0,0,0-5.249,0L99.082,195.4a3.712,3.712,0,0,0,0,5.249l.278.278a3.716,3.716,0,0,0,5.25,0l1.666-1.665a.768.768,0,0,0-1.085-1.086Z" transform="translate(-88.834 -186.664)"/>
    </g>
    <rect id="Rectangle_898" data-name="Rectangle 898" width="24" height="24" transform="translate(13408 392)" fill="none"/>
  </g>
</svg>
