<svg xmlns="http://www.w3.org/2000/svg" width="24" height="24" viewBox="0 0 24 24">
  <g id="Group_2727" data-name="Group 2727" transform="translate(-13115 -392)">
    <path id="noun-bullet-points-4606140" d="M137.855,142.076H123.619a1.037,1.037,0,0,1,0-2.074h14.236a1.037,1.037,0,0,1,0,2.074Zm1.037,4.147a1.036,1.036,0,0,0-1.037-1.037H123.619a1.037,1.037,0,1,0,0,2.074h14.236a1.036,1.036,0,0,0,1.037-1.037Zm0,5.184a1.037,1.037,0,0,0-1.037-1.037H123.619a1.037,1.037,0,0,0,0,2.074h14.236a1.037,1.037,0,0,0,1.037-1.037ZM119.337,140a1.037,1.037,0,1,0,.733.3A1.037,1.037,0,0,0,119.337,140Zm0,5.184a1.037,1.037,0,1,0,.733.3A1.037,1.037,0,0,0,119.337,145.186Zm0,5.184h0a1.037,1.037,0,1,0,.733.3,1.038,1.038,0,0,0-.733-.3Z" transform="translate(12998.404 257.777)"/>
    <rect id="Rectangle_894" data-name="Rectangle 894" width="24" height="24" transform="translate(13115 392)" fill="none"/>
  </g>
</svg>
