<svg xmlns="http://www.w3.org/2000/svg" width="24" height="24" viewBox="0 0 24 24">
  <g id="Group_2740" data-name="Group 2740" transform="translate(-13558 -485)">
    <rect id="Rectangle_897" data-name="Rectangle 897" width="24" height="24" transform="translate(13558 485)" fill="none"/>
    <path id="noun-number-list-3871818" d="M140.453,91.37h-13.3a.7.7,0,1,1,0-1.4h13.3a.7.7,0,1,1,0,1.4Zm0,4.2h-13.3a.7.7,0,1,0,0,1.4h13.3a.7.7,0,1,0,0-1.4Zm0,5.6h-13.3a.7.7,0,1,0,0,1.4h13.3a.7.7,0,1,0,0-1.4Zm-15.5-12.281V92.45c-.03.366-.844.366-.874,0V89.6l-.162.1c-.365.219-.578-.435-.252-.6l.739-.448c.18-.1.544,0,.549.235Zm-1.515,9.428c-.136,0-.39-.1-.381-.269V97.5a.742.742,0,0,1,.126-.412c.365-.548,1.1-.835,1.509-1.341.535-.67-.67-1.12-.717-.319-.06.458-.94.438-.851-.134h0a1.16,1.16,0,0,1,1.265-1.075,1.213,1.213,0,0,1,1.3,1.159,1.694,1.694,0,0,1-.865,1.327c-.3.264-.849.423-.865.846h1.467c.353.03.346.727,0,.761Zm2.12,3.707a.939.939,0,0,0-.409-.285,1.188,1.188,0,0,0,.266-1.52,1.291,1.291,0,0,0-1.084-.412,1.107,1.107,0,0,0-1.277,1c-.021.306.159.362.454.353.276,0,.4-.079.409-.319-.015-.239.215-.291.414-.285.258.007.422.1.415.4,0,.231-.039.394-.23.457a.842.842,0,0,1-.207.025c-.344-.008-.342.678,0,.672a.79.79,0,0,1,.384.084c.223.109.193.712.039.859-.188.175-.907.2-.9-.21-.011-.279-.155-.28-.448-.291-.277.009-.41.033-.415.319h0a1.178,1.178,0,0,0,1.333,1.058,1.419,1.419,0,0,0,1.226-.529,1.4,1.4,0,0,0,.028-1.38Z" transform="translate(13438.307 401.19)" stroke="#000" stroke-width="0.25"/>
  </g>
</svg>
