<svg xmlns="http://www.w3.org/2000/svg" width="24" height="24" viewBox="0 0 24 24">
  <g id="Group_2736" data-name="Group 2736" transform="translate(-13648 -392)">
    <rect id="Rectangle_902" data-name="Rectangle 902" width="24" height="24" transform="translate(13648 392)" fill="none"/>
    <g id="underline" transform="translate(13643.256 390.385)">
      <path id="Path_2186" data-name="Path 2186" d="M21.482,21.516h-8.62a.862.862,0,1,1,0-1.724h8.62a.862.862,0,1,1,0,1.724Zm.862-14.654V12.9A5.172,5.172,0,0,1,12,12.9V6.862a.862.862,0,1,1,1.724,0V12.9a3.448,3.448,0,0,0,6.9,0V6.862a.862.862,0,1,1,1.724,0Z" fill-rule="evenodd"/>
    </g>
  </g>
</svg>
