<svg xmlns="http://www.w3.org/2000/svg" width="24" height="24" viewBox="0 0 24 24">
  <g id="Group_2735" data-name="Group 2735" transform="translate(-13588 -392)">
    <g id="Group_2724" data-name="Group 2724" transform="translate(13563.487 409.989)">
      <path id="Path_2147" data-name="Path 2147" d="M262.856,231.775h6.412a.356.356,0,0,0,.356-.356v-3.562a.356.356,0,0,0-.356-.356h-6.412a.356.356,0,0,0-.356.356v3.562a.356.356,0,0,0,.356.356Zm.356-3.562h5.7v2.85h-5.7Z" transform="translate(-229.762 -235.732)" stroke="#000" stroke-width="0.25"/>
      <path id="Path_2148" data-name="Path 2148" d="M262.856,109.275h6.412a.356.356,0,0,0,.356-.356v-3.562a.356.356,0,0,0-.356-.356h-6.412a.356.356,0,0,0-.356.356v3.562a.356.356,0,0,0,.356.356Zm.356-3.562h5.7v2.85h-5.7Z" transform="translate(-229.762 -118.219)" stroke="#000" stroke-width="0.25"/>
      <path id="Path_2149" data-name="Path 2149" d="M262.856,354.275h6.412a.356.356,0,0,0,.356-.356v-3.562a.356.356,0,0,0-.356-.356h-6.412a.356.356,0,0,0-.356.356v3.562a.356.356,0,0,0,.356.356Zm.356-3.562h5.7v2.85h-5.7Z" transform="translate(-229.762 -353.245)" stroke="#000" stroke-width="0.25"/>
      <path id="Path_2150" data-name="Path 2150" d="M157.856,79.061h3.918a.356.356,0,0,0,.356-.356h6.412a.356.356,0,0,0,.356.356h3.918a.356.356,0,0,0,.356-.356v-17.1a.356.356,0,0,0-.356-.356H168.9a.356.356,0,0,0-.356.356h-6.412a.356.356,0,0,0-.356-.356h-3.918a.356.356,0,0,0-.356.356V78.7a.356.356,0,0,0,.356.356Zm.356-17.1h.712V78.349h-.712Zm3.562.356H168.9a.356.356,0,0,0,.356-.356h1.781V78.349h-1.781a.356.356,0,0,0-.356-.356h-7.124a.356.356,0,0,0-.356.356h-1.781V61.962h1.781a.356.356,0,0,0,.356.356Zm10.687,16.03h-.712V61.962h.712Z" transform="translate(-129.037 -76.25)" stroke="#000" stroke-width="0.25"/>
      <path id="Path_2151" data-name="Path 2151" d="M227.856,106.425a.356.356,0,0,0,.356-.356v-.712a.356.356,0,1,0-.712,0v.712a.356.356,0,0,0,.356.356Z" transform="translate(-196.187 -118.219)" stroke="#000" stroke-width="0.25"/>
      <path id="Path_2152" data-name="Path 2152" d="M227.856,176.425a.356.356,0,0,0,.356-.356v-.712a.356.356,0,0,0-.712,0v.712a.356.356,0,0,0,.356.356Z" transform="translate(-196.187 -185.369)" stroke="#000" stroke-width="0.25"/>
      <path id="Path_2153" data-name="Path 2153" d="M455.356,106.425a.356.356,0,0,0,.356-.356v-.712a.356.356,0,0,0-.712,0v.712a.356.356,0,0,0,.356.356Z" transform="translate(-414.426 -118.219)" stroke="#000" stroke-width="0.25"/>
      <path id="Path_2154" data-name="Path 2154" d="M455.356,176.425a.356.356,0,0,0,.356-.356v-.712a.356.356,0,0,0-.712,0v.712a.356.356,0,0,0,.356.356Z" transform="translate(-414.426 -185.369)" stroke="#000" stroke-width="0.25"/>
      <path id="Path_2155" data-name="Path 2155" d="M227.856,228.925a.356.356,0,0,0,.356-.356v-.712a.356.356,0,1,0-.712,0v.712a.356.356,0,0,0,.356.356Z" transform="translate(-196.187 -235.732)" stroke="#000" stroke-width="0.25"/>
      <path id="Path_2156" data-name="Path 2156" d="M227.856,298.925a.356.356,0,0,0,.356-.356v-.712a.356.356,0,1,0-.712,0v.712a.356.356,0,0,0,.356.356Z" transform="translate(-196.187 -302.882)" stroke="#000" stroke-width="0.25"/>
      <path id="Path_2157" data-name="Path 2157" d="M455.356,228.925a.356.356,0,0,0,.356-.356v-.712a.356.356,0,1,0-.712,0v.712a.356.356,0,0,0,.356.356Z" transform="translate(-414.426 -235.732)" stroke="#000" stroke-width="0.25"/>
      <path id="Path_2158" data-name="Path 2158" d="M455.356,298.925a.356.356,0,0,0,.356-.356v-.712a.356.356,0,1,0-.712,0v.712a.356.356,0,0,0,.356.356Z" transform="translate(-414.426 -302.882)" stroke="#000" stroke-width="0.25"/>
      <path id="Path_2159" data-name="Path 2159" d="M227.856,351.425a.356.356,0,0,0,.356-.356v-.712a.356.356,0,1,0-.712,0v.712a.356.356,0,0,0,.356.356Z" transform="translate(-196.187 -353.245)" stroke="#000" stroke-width="0.25"/>
      <path id="Path_2160" data-name="Path 2160" d="M227.856,421.425a.356.356,0,0,0,.356-.356v-.712a.356.356,0,1,0-.712,0v.712a.356.356,0,0,0,.356.356Z" transform="translate(-196.187 -420.395)" stroke="#000" stroke-width="0.25"/>
      <path id="Path_2161" data-name="Path 2161" d="M455.356,351.425a.356.356,0,0,0,.356-.356v-.712a.356.356,0,0,0-.712,0v.712a.356.356,0,0,0,.356.356Z" transform="translate(-414.426 -353.245)" stroke="#000" stroke-width="0.25"/>
      <path id="Path_2162" data-name="Path 2162" d="M455.356,421.425a.356.356,0,0,0,.356-.356v-.712a.356.356,0,0,0-.712,0v.712a.356.356,0,0,0,.356.356Z" transform="translate(-414.426 -420.395)" stroke="#000" stroke-width="0.25"/>
    </g>
    <rect id="Rectangle_901" data-name="Rectangle 901" width="24" height="24" transform="translate(13588 392)" fill="none"/>
  </g>
</svg>
